<svg id="visual" viewBox="0 0 2000 450" width="2000" height="450" xmlns="http://www.w3.org/2000/svg" xmlns:xlink="http://www.w3.org/1999/xlink" version="1.1"><rect x="0" y="0" width="2000" height="450" fill="#ace8bc"></rect><defs><linearGradient id="grad1_0" x1="77.5%" y1="0%" x2="100%" y2="100%"><stop offset="-38.8888888888889%" stop-color="#5db662" stop-opacity="1"></stop><stop offset="138.88888888888889%" stop-color="#5db662" stop-opacity="1"></stop></linearGradient></defs><defs><linearGradient id="grad1_1" x1="77.5%" y1="0%" x2="100%" y2="100%"><stop offset="-38.8888888888889%" stop-color="#5db662" stop-opacity="1"></stop><stop offset="138.88888888888889%" stop-color="#ace8bc" stop-opacity="1"></stop></linearGradient></defs><defs><linearGradient id="grad2_0" x1="0%" y1="0%" x2="22.5%" y2="100%"><stop offset="-38.8888888888889%" stop-color="#5db662" stop-opacity="1"></stop><stop offset="138.88888888888889%" stop-color="#5db662" stop-opacity="1"></stop></linearGradient></defs><defs><linearGradient id="grad2_1" x1="0%" y1="0%" x2="22.5%" y2="100%"><stop offset="-38.8888888888889%" stop-color="#ace8bc" stop-opacity="1"></stop><stop offset="138.88888888888889%" stop-color="#5db662" stop-opacity="1"></stop></linearGradient></defs><g transform="translate(2000, 0)"><path d="M0 337.5C-25.1 320.4 -50.2 303.2 -80.2 299.4C-110.2 295.6 -145.1 305.1 -168.7 292.3C-192.4 279.4 -204.9 244.2 -212.8 212.8C-220.8 181.5 -224.2 154.1 -226 130.5C-227.8 106.9 -228 87.1 -246.3 66C-264.6 44.9 -301.1 22.4 -337.5 0L0 0Z" fill="#83cf90"></path><path d="M0 168.8C-12.6 160.2 -25.1 151.6 -40.1 149.7C-55.1 147.8 -72.5 152.6 -84.4 146.1C-96.2 139.7 -102.4 122.1 -106.4 106.4C-110.4 90.8 -112.1 77 -113 65.3C-113.9 53.5 -114 43.6 -123.2 33C-132.3 22.4 -150.5 11.2 -168.7 0L0 0Z" fill="#5db662"></path></g><g transform="translate(0, 450)"><path d="M0 -337.5C34.3 -339.7 68.6 -341.9 83.9 -313C99.1 -284 95.3 -223.8 121.5 -210.4C147.7 -197.1 204 -230.6 222 -222C240.1 -213.5 219.8 -162.9 235.6 -136C251.3 -109.1 303 -106.1 326 -87.4C349 -68.6 343.2 -34.3 337.5 0L0 0Z" fill="#83cf90"></path><path d="M0 -168.7C17.2 -169.9 34.3 -171 41.9 -156.5C49.5 -142 47.6 -111.9 60.7 -105.2C73.9 -98.5 102 -115.3 111 -111C120 -106.7 109.9 -81.4 117.8 -68C125.6 -54.6 151.5 -53 163 -43.7C174.5 -34.3 171.6 -17.2 168.8 0L0 0Z" fill="#5db662"></path></g></svg>