<svg id="visual" viewBox="0 0 2000 500" width="2000" height="500" xmlns="http://www.w3.org/2000/svg" xmlns:xlink="http://www.w3.org/1999/xlink" version="1.1"><path d="M1719 500L1722.3 483.3C1725.7 466.7 1732.3 433.3 1752.3 400C1772.3 366.7 1805.7 333.3 1795.7 300C1785.7 266.7 1732.3 233.3 1712.3 200C1692.3 166.7 1705.7 133.3 1722.3 100C1739 66.7 1759 33.3 1769 16.7L1779 0L2000 0L2000 16.7C2000 33.3 2000 66.7 2000 100C2000 133.3 2000 166.7 2000 200C2000 233.3 2000 266.7 2000 300C2000 333.3 2000 366.7 2000 400C2000 433.3 2000 466.7 2000 483.3L2000 500Z" fill="#8fcd93"></path><path d="M1359 500L1332.3 483.3C1305.7 466.7 1252.3 433.3 1205.7 400C1159 366.7 1119 333.3 1069 300C1019 266.7 959 233.3 969 200C979 166.7 1059 133.3 1109 100C1159 66.7 1179 33.3 1189 16.7L1199 0L1780 0L1770 16.7C1760 33.3 1740 66.7 1723.3 100C1706.7 133.3 1693.3 166.7 1713.3 200C1733.3 233.3 1786.7 266.7 1796.7 300C1806.7 333.3 1773.3 366.7 1753.3 400C1733.3 433.3 1726.7 466.7 1723.3 483.3L1720 500Z" fill="#76c27b"></path><path d="M799 500L775.7 483.3C752.3 466.7 705.7 433.3 702.3 400C699 366.7 739 333.3 715.7 300C692.3 266.7 605.7 233.3 555.7 200C505.7 166.7 492.3 133.3 489 100C485.7 66.7 492.3 33.3 495.7 16.7L499 0L1200 0L1190 16.7C1180 33.3 1160 66.7 1110 100C1060 133.3 980 166.7 970 200C960 233.3 1020 266.7 1070 300C1120 333.3 1160 366.7 1206.7 400C1253.3 433.3 1306.7 466.7 1333.3 483.3L1360 500Z" fill="#5db662"></path><path d="M419 500L399 483.3C379 466.7 339 433.3 345.7 400C352.3 366.7 405.7 333.3 415.7 300C425.7 266.7 392.3 233.3 369 200C345.7 166.7 332.3 133.3 309 100C285.7 66.7 252.3 33.3 235.7 16.7L219 0L500 0L496.7 16.7C493.3 33.3 486.7 66.7 490 100C493.3 133.3 506.7 166.7 556.7 200C606.7 233.3 693.3 266.7 716.7 300C740 333.3 700 366.7 703.3 400C706.7 433.3 753.3 466.7 776.7 483.3L800 500Z" fill="#509e54"></path><path d="M0 500L0 483.3C0 466.7 0 433.3 0 400C0 366.7 0 333.3 0 300C0 266.7 0 233.3 0 200C0 166.7 0 133.3 0 100C0 66.7 0 33.3 0 16.7L0 0L220 0L236.7 16.7C253.3 33.3 286.7 66.7 310 100C333.3 133.3 346.7 166.7 370 200C393.3 233.3 426.7 266.7 416.7 300C406.7 333.3 353.3 366.7 346.7 400C340 433.3 380 466.7 400 483.3L420 500Z" fill="#438647"></path></svg>